<svg width="771" height="651" viewBox="0 0 771 651" fill="none" xmlns="http://www.w3.org/2000/svg">
<g clip-path="url(#clip0_2_2)">
<path d="M719.421 569.573C719.421 569.573 607.115 517.873 646.568 482.021C686.021 446.169 719.421 569.573 719.421 569.573Z" fill="#E6E6E6"/>
<path d="M717.466 581.637C717.466 581.637 665.846 412.031 741.859 420.142C817.871 428.253 717.466 581.637 717.466 581.637Z" fill="#E6E6E6"/>
<path d="M679.83 566.595L681.996 594.967L682.031 595.457C682.029 599.887 682.252 604.315 682.701 608.723C685.642 637.662 698.28 650.85 713.05 650.85C727.821 650.85 739.909 637.662 742.849 608.723C743.298 604.315 743.522 599.887 743.52 595.457L743.537 595.061L743.545 594.967L745.721 566.595H679.83Z" fill="#E6E6E6"/>
<path d="M743.545 594.967L743.537 595.061L743.52 595.457C743.522 599.887 743.298 604.315 742.849 608.723H682.701C682.252 604.315 682.029 599.887 682.031 595.457L681.996 594.967H743.545Z" fill="white"/>
<path d="M84.8102 594.264C84.8102 594.264 43.0502 575.04 57.7205 561.708C72.3908 548.377 84.8102 594.264 84.8102 594.264Z" fill="#E6E6E6"/>
<path d="M57.1548 592.228L58.6622 611.968L58.6862 612.309C58.6847 615.391 58.8405 618.472 59.1528 621.539C61.1986 641.674 69.9919 650.85 80.2688 650.85C90.5457 650.85 98.9562 641.674 101.002 621.539C101.314 618.472 101.47 615.391 101.469 612.309L101.481 612.034L101.487 611.968L103 592.228L57.1548 592.228Z" fill="#E6E6E6"/>
<path d="M523.404 306.326C524.97 305.243 526.202 303.744 526.96 301.997C527.717 300.25 527.97 298.326 527.689 296.442C527.408 294.559 526.606 292.792 525.372 291.342C524.138 289.892 522.522 288.816 520.708 288.238L497.328 280.781L484.48 291.914L512.842 306.946C514.49 307.819 516.347 308.224 518.21 308.114C520.072 308.005 521.869 307.386 523.404 306.326V306.326Z" fill="#FFB9B9"/>
<path d="M484.086 299.184L499.5 281.311L442.105 218.495L415.679 157.228C413.938 153.191 410.838 149.891 406.918 147.901C402.997 145.91 398.504 145.356 394.218 146.333V146.333C391.414 146.972 388.794 148.245 386.56 150.054C384.325 151.863 382.534 154.16 381.325 156.769C380.116 159.378 379.521 162.229 379.586 165.103C379.651 167.978 380.373 170.8 381.698 173.351L416.189 239.787L484.086 299.184Z" fill="#E6E6E6"/>
<path d="M520.909 535.935L517.955 531.35H512.5V529.35H519.045L522.591 534.851L520.909 535.935Z" fill="#3F3D56"/>
<path d="M508.668 531.35H497.171V529.35H508.668V531.35ZM493.338 531.35H481.841V529.35H493.338V531.35ZM478.009 531.35H466.512V529.35H478.009L478.009 531.35ZM462.679 531.35H451.182V529.35H462.679V531.35ZM447.35 531.35H435.853V529.35H447.35V531.35ZM432.02 531.35L421.368 531.341L420.399 531.212L420.663 529.23L421.566 529.35H432.02V531.35ZM416.601 530.707L405.203 529.194L405.467 527.211L416.864 528.725L416.601 530.707ZM401.404 528.689L390.007 527.174L390.271 525.192L401.668 526.706L401.404 528.689ZM386.208 526.669L374.811 525.156L375.075 523.173L386.472 524.687L386.208 526.669ZM371.012 524.651L359.615 523.136L359.879 521.154L371.276 522.668L371.012 524.651Z" fill="#3F3D56"/>
<path d="M350.828 526.876L348.829 526.82L349.032 519.712L356.08 520.649L355.816 522.631L350.968 521.988L350.828 526.876Z" fill="#3F3D56"/>
<path d="M349.299 580.418L347.3 580.362L347.682 566.976L349.681 567.033L349.299 580.418ZM349.809 562.571L347.81 562.514L348.192 549.128L350.191 549.185L349.809 562.571ZM350.318 544.723L348.319 544.666L348.702 531.281L350.701 531.337L350.318 544.723Z" fill="#3F3D56"/>
<path d="M346.969 591.933L347.172 584.824L349.171 584.88L349.031 589.767L353.904 589.388L354.06 591.382L346.969 591.933Z" fill="#3F3D56"/>
<path d="M357.887 591.085L357.731 589.091L369.213 588.199L369.369 590.193L357.887 591.085ZM373.196 589.896L373.041 587.902L384.522 587.009L384.678 589.003L373.196 589.896ZM388.505 588.706L388.35 586.712L399.832 585.82L399.986 587.814L388.505 588.706ZM403.814 587.517L403.659 585.523L415.141 584.63L415.295 586.624L403.814 587.517ZM419.122 586.328L418.968 584.333L430.45 583.441L430.605 585.435L419.122 586.328ZM434.432 585.138L434.277 583.144L445.759 582.251L445.913 584.246L434.432 585.138ZM449.74 583.949L449.586 581.955L461.068 581.062L461.223 583.056L449.74 583.949ZM465.05 582.759L464.896 580.765L476.377 579.873L476.531 581.867L465.05 582.759ZM480.358 581.57L480.204 579.576L491.687 578.683L491.841 580.677L480.358 581.57ZM495.668 580.38L495.514 578.386L506.995 577.494L507.149 579.488L495.668 580.38ZM510.977 579.191L510.822 577.197L522.305 576.304L522.459 578.298L510.977 579.191ZM526.286 578.001L526.132 576.007L537.613 575.115L537.768 577.109L526.286 578.001Z" fill="#3F3D56"/>
<path d="M541.595 576.812L541.44 574.818L545.752 574.483L543.409 570.849L545.091 569.765L549.248 576.217L541.595 576.812Z" fill="#3F3D56"/>
<path d="M540.909 566.969L533.409 555.331L535.091 554.247L542.591 565.885L540.909 566.969ZM530.909 551.453L523.409 539.815L525.091 538.731L532.591 550.369L530.909 551.453Z" fill="#3F3D56"/>
<path d="M504 619.85C541.555 619.85 572 589.405 572 551.85C572 514.295 541.555 483.85 504 483.85C466.445 483.85 436 514.295 436 551.85C436 589.405 466.445 619.85 504 619.85Z" fill="#5BA4C9"/>
<path d="M560 630.85L460.5 454.35L438.5 476.35L536.5 630.35L560 630.85Z" fill="#3F3D56"/>
<path d="M258.5 626.35L482 399.85L500.5 436.35L288.5 636.35L258.5 626.35Z" fill="#3F3D56"/>
<path d="M349.5 602.35C374.353 602.35 394.5 582.203 394.5 557.35C394.5 532.497 374.353 512.35 349.5 512.35C324.647 512.35 304.5 532.497 304.5 557.35C304.5 582.203 324.647 602.35 349.5 602.35Z" fill="#3F3D56"/>
<path d="M289.5 570.35C289.235 570.35 288.981 570.456 288.793 570.643C288.606 570.831 288.5 571.085 288.5 571.35V579.35C288.5 579.615 288.606 579.869 288.793 580.057C288.981 580.244 289.235 580.35 289.5 580.35H314.5C314.765 580.35 315.019 580.244 315.207 580.057C315.394 579.869 315.5 579.615 315.5 579.35V571.35C315.5 571.085 315.394 570.831 315.207 570.643C315.019 570.456 314.765 570.35 314.5 570.35H289.5Z" fill="#5BA4C9"/>
<path d="M347 458.85C346.735 458.85 346.481 458.956 346.293 459.143C346.106 459.331 346 459.585 346 459.85V467.85C346 468.115 346.106 468.369 346.293 468.557C346.481 468.744 346.735 468.85 347 468.85H372C372.265 468.85 372.519 468.744 372.707 468.557C372.894 468.369 373 468.115 373 467.85V459.85C373 459.585 372.894 459.331 372.707 459.143C372.519 458.956 372.265 458.85 372 458.85H347Z" fill="#5BA4C9"/>
<path d="M468.5 442.35H442.5V422.35L452.5 418.35L468.5 430.35V442.35Z" fill="#3F3D56"/>
<path d="M445.79 413.285L443.078 414.568L448.21 425.415L450.922 424.132L445.79 413.285Z" fill="#3F3D56"/>
<path d="M448.665 400.306C448.474 400.306 448.287 400.361 448.127 400.465L430.464 411.825C430.241 411.968 430.084 412.195 430.028 412.454C429.972 412.713 430.021 412.983 430.164 413.206L434.491 419.935C434.635 420.158 434.861 420.315 435.12 420.371C435.379 420.427 435.65 420.378 435.873 420.235L453.536 408.875V408.876C453.759 408.732 453.915 408.506 453.972 408.247C454.028 407.988 453.979 407.717 453.836 407.494L449.509 400.765C449.438 400.654 449.346 400.559 449.238 400.484C449.13 400.409 449.008 400.357 448.88 400.329C448.809 400.314 448.737 400.306 448.665 400.306V400.306Z" fill="#5BA4C9"/>
<path d="M488.5 440.35L468 340.85L492 336.85L508.364 417.005C509.067 419.911 509.073 422.942 508.381 425.85C507.688 428.759 506.317 431.462 504.38 433.739C502.442 436.016 499.994 437.802 497.234 438.951C494.474 440.1 491.481 440.579 488.5 440.35Z" fill="#3F3D56"/>
<path d="M564.031 321.245L540.29 319.549C539.973 319.527 539.665 319.429 539.393 319.263C539.121 319.098 538.893 318.87 538.727 318.599C538.561 318.327 538.462 318.02 538.438 317.703C538.414 317.386 538.467 317.067 538.591 316.774L573.077 235.348C573.207 235.042 573.411 234.773 573.671 234.565C573.932 234.357 574.239 234.218 574.567 234.159L597.985 229.978C598.335 229.915 598.695 229.947 599.028 230.07C599.362 230.193 599.657 230.403 599.882 230.678C600.108 230.953 600.256 231.283 600.312 231.634C600.367 231.985 600.328 232.344 600.199 232.675L566.036 319.979C565.881 320.376 565.603 320.713 565.242 320.941C564.881 321.169 564.457 321.276 564.031 321.245Z" fill="#3F3D56"/>
<path d="M543.5 313.35L562.5 315.35L593.5 237.35L573.5 240.35L543.5 313.35Z" fill="#5BA4C9"/>
<path d="M336.5 527.35L311.5 552.35L275.5 395.35L295.5 398.35L336.5 527.35Z" fill="#3F3D56"/>
<path d="M307.366 398.112L303.048 396.817C294.563 400.557 285.332 402.294 276.068 401.894C274.068 401.811 272.177 400.954 270.795 399.506C269.413 398.057 268.646 396.128 268.657 394.125V394.125C268.657 392.063 269.477 390.086 270.935 388.627C272.393 387.169 274.371 386.35 276.433 386.35H314.15C315.171 386.35 316.15 386.756 316.872 387.478C317.594 388.2 318 389.179 318 390.2C318 391.488 317.699 392.758 317.121 393.908C316.543 395.059 315.704 396.059 314.67 396.827C313.637 397.596 312.439 398.112 311.17 398.336C309.902 398.559 308.599 398.482 307.366 398.112V398.112Z" fill="#3F3D56"/>
<path d="M546.269 299.929C545.303 299.927 544.363 300.244 543.596 300.83L512.895 324.307L478.528 328.789C472.611 329.561 468.514 335.998 468 341.85L508.453 336.232C514.073 335.691 519.384 333.411 523.647 329.711L549.149 307.656C549.829 307.069 550.313 306.288 550.536 305.418C550.759 304.549 550.711 303.631 550.397 302.79C550.083 301.949 549.52 301.223 548.782 300.712C548.044 300.2 547.167 299.927 546.269 299.929V299.929Z" fill="#3F3D56"/>
<path d="M531.269 284.929C530.303 284.927 529.363 285.244 528.596 285.83L497.895 309.307L463.528 313.789C457.611 314.561 453.514 320.998 453 326.85L493.453 321.232C499.073 320.691 504.384 318.411 508.647 314.711L534.149 292.656C534.829 292.069 535.313 291.288 535.536 290.418C535.759 289.549 535.711 288.631 535.397 287.79C535.083 286.949 534.52 286.223 533.782 285.712C533.044 285.2 532.167 284.927 531.269 284.929V284.929Z" fill="#3F3D56"/>
<path d="M550 345.35C542.851 345.335 535.805 343.643 529.429 340.409C523.053 337.176 517.524 332.491 513.287 326.733L517.319 323.776C520.552 328.193 524.648 331.908 529.358 334.698C534.068 337.488 539.295 339.294 544.723 340.007C550.15 340.72 555.666 340.326 560.937 338.847C566.208 337.369 571.124 334.837 575.389 331.405C579.654 327.973 583.179 323.713 585.751 318.88C588.323 314.048 589.889 308.744 590.354 303.29C590.819 297.835 590.173 292.343 588.456 287.145C586.739 281.947 583.985 277.151 580.363 273.047L584.111 269.737C589.907 276.303 593.685 284.402 594.991 293.062C596.298 301.722 595.077 310.576 591.475 318.559C587.874 326.543 582.045 333.317 574.688 338.07C567.331 342.822 558.759 345.35 550 345.35V345.35Z" fill="#3F3D56"/>
<path d="M585 625.85H231V650.85H585V625.85Z" fill="#3F3D56"/>
<path d="M498.247 332.051C500.015 331.344 501.55 330.156 502.676 328.621C503.803 327.086 504.477 325.266 504.622 323.367C504.767 321.469 504.377 319.568 503.496 317.879C502.615 316.191 501.279 314.784 499.639 313.817L478.5 301.35L463.5 309.35L487.812 330.308C489.225 331.527 490.945 332.333 492.785 332.641C494.626 332.948 496.515 332.744 498.247 332.051V332.051Z" fill="#FFB9B9"/>
<path d="M332.5 420.35L346.5 428.35L432.947 364.719C436.118 362.553 438.806 359.755 440.843 356.5C442.88 353.245 444.222 349.604 444.784 345.806V345.806C445.487 341.004 444.927 336.102 443.16 331.582C441.392 327.062 438.478 323.081 434.703 320.029C415.612 304.523 392.018 290.459 367 276.85L330 294.85C345.248 326.116 362.175 351.895 387 351.85L332.5 420.35Z" fill="#5BA4C9"/>
<path d="M326.397 440.72C338.013 452.488 353.308 460.908 370.393 467.7C371.681 468.21 373.095 468.308 374.441 467.981C375.787 467.654 376.998 466.918 377.909 465.874C379.014 464.607 379.602 462.97 379.556 461.289C379.51 459.608 378.833 458.006 377.659 456.802L366.585 445.433L359.894 421.602C345.525 428.704 336.104 427.114 334.246 412.235L325.19 424.585C323.439 426.979 322.599 429.918 322.821 432.875C323.042 435.832 324.31 438.614 326.397 440.72V440.72Z" fill="#2F2E41"/>
<path d="M287.5 546.35L308.5 547.35L356.5 300.35L274 273.85C265.763 304.645 277.993 355.053 299.5 414.35L287.5 546.35Z" fill="#5BA4C9"/>
<path d="M449 138.85C467.225 138.85 482 124.075 482 105.85C482 87.6246 467.225 72.85 449 72.85C430.775 72.85 416 87.6246 416 105.85C416 124.075 430.775 138.85 449 138.85Z" fill="#FFB9B9"/>
<path d="M388.5 146.35L409.5 161.35L441.5 129.35L425.5 109.35L388.5 146.35Z" fill="#FFB9B9"/>
<path d="M270.5 276.35C296.398 297.455 324.679 311.327 359.5 305.35C370.022 288.528 377.791 253.091 391 237.85C419.845 204.567 434.152 174.9 425 147.85C416.104 142.034 416.495 142.044 410 122.85C359.123 132.263 309.869 189.695 270.5 276.35Z" fill="#E6E6E6"/>
<path d="M287.164 566.93C302.112 573.999 319.368 576.661 337.745 577.179C339.13 577.217 340.492 576.824 341.644 576.055C342.796 575.286 343.682 574.179 344.179 572.886V572.886C344.782 571.317 344.773 569.577 344.153 568.014C343.533 566.451 342.347 565.179 340.832 564.45L326.529 557.57L312.069 537.481C301.009 549.081 291.614 550.82 284.765 537.481L280.494 552.189C279.671 555.038 279.891 558.087 281.113 560.788C282.335 563.49 284.481 565.668 287.164 566.93Z" fill="#2F2E41"/>
<path d="M461.5 316.35L480.5 302.35L438.5 228.35L426.35 162.742C425.55 158.419 423.261 154.512 419.881 151.701C416.501 148.889 412.243 147.35 407.847 147.35V147.35C404.971 147.35 402.134 148.009 399.553 149.276C396.972 150.543 394.716 152.385 392.957 154.66C391.199 156.935 389.985 159.583 389.41 162.4C388.834 165.217 388.911 168.128 389.636 170.911L408.5 243.35L461.5 316.35Z" fill="#E6E6E6"/>
<path d="M366 467.85H355V527.85H366V467.85Z" fill="#3F3D56"/>
<path d="M475.12 96.2792C476.412 97.8277 478.069 99.0304 479.942 99.7787C481.814 100.527 483.844 100.798 485.847 100.566C489.82 99.9465 493.355 96.558 493.61 92.5457C493.829 89.081 491.793 85.9033 489.656 83.1673C484.94 77.1342 479.34 71.848 473.046 67.4877C470.044 65.4097 466.732 63.4968 463.089 63.2728C461.286 63.1619 459.479 63.4727 457.674 63.3951C454.356 63.2526 451.246 61.8167 448.009 61.073C444.685 60.3325 441.241 60.3146 437.91 61.0205C434.579 61.7264 431.438 63.1395 428.7 65.1644C426.875 66.5594 425.223 68.1689 423.782 69.9583C419.796 74.8335 417.123 80.647 416.016 86.8464C414.276 96.6732 416.448 107.451 411.726 116.243C417.267 115.725 421.709 111.5 426.973 109.694C430.879 108.368 435.119 108.406 439.001 109.802C440.001 110.314 441.128 110.525 442.246 110.408C443.169 110.083 443.976 109.493 444.566 108.712L454.632 97.7595C456.68 95.5305 459.007 93.1558 462.019 92.8472C463.817 92.7851 465.605 93.1397 467.243 93.8835C471.279 95.4095 475.182 97.2644 478.915 99.4295" fill="#2F2E41"/>
<path d="M456 324.85L453 326.85L473 346.85L485 335.85L465 319.85L456 324.85Z" fill="#3F3D56"/>
<path d="M247.66 0H0V256.25H247.66V0Z" fill="#E6E6E6"/>
<path d="M234.44 13.68H13.22V242.57H234.44V13.68Z" fill="white"/>
<path d="M56.26 246.57H64.139L64.089 243.398L63.954 236.362L62.705 164.015L62.688 163.677L62.047 126.711L60.478 36.85H60.124L58.453 127.369L57.795 163.694L57.778 164.032L56.26 246.57Z" fill="#E6E6E6"/>
<path d="M83.2913 233.292L80.3608 227.725L59.3329 238.796L62.2634 244.362L83.2913 233.292Z" fill="#E6E6E6"/>
<path d="M129 6.85004H119V248.85H129V6.85004Z" fill="#E6E6E6"/>
<path d="M247.66 122.85H0V132.85H247.66V122.85Z" fill="#E6E6E6"/>
</g>
<defs>
<clipPath id="clip0_2_2">
<rect width="770.301" height="650.85" fill="white"/>
</clipPath>
</defs>
</svg>
