<svg width="893" height="580" viewBox="0 0 893 580" fill="none" xmlns="http://www.w3.org/2000/svg">
<g clip-path="url(#clip0_101_2)">
<path d="M683.656 548.528L730.114 479.44L683.751 555.96L683.848 563.734C680.456 563.76 677.098 563.704 673.772 563.565L676.076 463.634L676.013 462.863L676.098 462.714L676.318 453.272L625.442 379.404L676.258 446.204L676.439 448.2L678.179 372.699L634.235 296.115L678.304 359.435L677.844 203.016L677.845 202.495L677.86 203.007L680.777 326.287L720.827 276.211L680.909 336.907L681.783 404.441L718.636 338.53L681.918 414.37L682.405 451.922L736 360.109L682.568 465.023L683.656 548.528Z" fill="#E6E6E6"/>
<path d="M840.005 550.704L886.463 481.616L840.1 558.136L840.197 565.91C836.806 565.936 833.447 565.88 830.121 565.741L832.426 465.81L832.362 465.039L832.447 464.89L832.668 455.448L781.791 381.581L832.608 448.38L832.788 450.376L834.529 374.875L790.585 298.292L834.654 361.611L834.194 205.192L834.195 204.671L834.21 205.183L837.127 328.463L877.176 278.387L837.258 339.083L838.132 406.617L874.986 340.707L838.268 416.546L838.754 454.099L892.35 362.286L838.917 467.199L840.005 550.704Z" fill="#E6E6E6"/>
<path d="M370.008 0H92V376.039H370.008V0Z" fill="#E6E6E6"/>
<path d="M360.211 13.2509H101.797V362.789H360.211V13.2509Z" fill="white"/>
<path d="M326.245 74.5588H136.591C135.055 74.5568 133.582 73.9451 132.497 72.8582C131.411 71.7712 130.802 70.2978 130.802 68.7616C130.802 67.2253 131.411 65.7519 132.497 64.665C133.582 63.578 135.055 62.9663 136.591 62.9643H326.245C327.007 62.9633 327.761 63.1125 328.466 63.4034C329.17 63.6943 329.81 64.1211 330.349 64.6596C330.888 65.198 331.316 65.8374 331.608 66.5413C331.9 67.2451 332.05 67.9996 332.05 68.7616C332.05 69.5235 331.9 70.278 331.608 70.9818C331.316 71.6857 330.888 72.3251 330.349 72.8635C329.81 73.402 329.17 73.8288 328.466 74.1197C327.761 74.4106 327.007 74.5598 326.245 74.5588V74.5588Z" fill="#E6E6E6"/>
<path d="M326.245 134.188H136.591C135.055 134.186 133.582 133.574 132.497 132.487C131.411 131.4 130.802 129.927 130.802 128.391C130.802 126.854 131.411 125.381 132.497 124.294C133.582 123.207 135.055 122.595 136.591 122.593H326.245C327.007 122.592 327.761 122.742 328.466 123.032C329.17 123.323 329.81 123.75 330.349 124.289C330.888 124.827 331.316 125.466 331.608 126.17C331.9 126.874 332.05 127.629 332.05 128.391C332.05 129.153 331.9 129.907 331.608 130.611C331.316 131.315 330.888 131.954 330.349 132.493C329.81 133.031 329.17 133.458 328.466 133.749C327.761 134.04 327.007 134.189 326.245 134.188V134.188Z" fill="#E6E6E6"/>
<path d="M326.245 193.817H136.591C135.055 193.815 133.582 193.203 132.497 192.116C131.411 191.029 130.802 189.556 130.802 188.02C130.802 186.483 131.411 185.01 132.497 183.923C133.582 182.836 135.055 182.224 136.591 182.222H326.245C327.007 182.221 327.761 182.371 328.466 182.662C329.17 182.952 329.81 183.379 330.349 183.918C330.888 184.456 331.316 185.096 331.608 185.799C331.9 186.503 332.05 187.258 332.05 188.02C332.05 188.782 331.9 189.536 331.608 190.24C331.316 190.944 330.888 191.583 330.349 192.122C329.81 192.66 329.17 193.087 328.466 193.378C327.761 193.669 327.007 193.818 326.245 193.817V193.817Z" fill="#E6E6E6"/>
<path d="M326.245 253.446H136.591C135.055 253.444 133.582 252.832 132.497 251.745C131.411 250.658 130.802 249.185 130.802 247.649C130.802 246.113 131.411 244.639 132.497 243.552C133.582 242.465 135.055 241.854 136.591 241.852H326.245C327.007 241.851 327.761 242 328.466 242.291C329.17 242.582 329.81 243.008 330.349 243.547C330.888 244.085 331.316 244.725 331.608 245.429C331.9 246.132 332.05 246.887 332.05 247.649C332.05 248.411 331.9 249.165 331.608 249.869C331.316 250.573 330.888 251.212 330.349 251.751C329.81 252.289 329.17 252.716 328.466 253.007C327.761 253.298 327.007 253.447 326.245 253.446V253.446Z" fill="#E6E6E6"/>
<path d="M326.245 313.075H136.591C135.055 313.073 133.582 312.462 132.497 311.375C131.411 310.288 130.802 308.814 130.802 307.278C130.802 305.742 131.411 304.268 132.497 303.181C133.582 302.094 135.055 301.483 136.591 301.481H326.245C327.007 301.48 327.761 301.629 328.466 301.92C329.17 302.211 329.81 302.638 330.349 303.176C330.888 303.714 331.316 304.354 331.608 305.058C331.9 305.762 332.05 306.516 332.05 307.278C332.05 308.04 331.9 308.794 331.608 309.498C331.316 310.202 330.888 310.841 330.349 311.38C329.81 311.918 329.17 312.345 328.466 312.636C327.761 312.927 327.007 313.076 326.245 313.075V313.075Z" fill="#E6E6E6"/>
<path d="M293.118 74.5588H135.763C135.001 74.5598 134.246 74.4106 133.542 74.1197C132.838 73.8288 132.198 73.402 131.659 72.8635C131.12 72.3251 130.692 71.6857 130.4 70.9818C130.108 70.278 129.958 69.5235 129.958 68.7616C129.958 67.9996 130.108 67.2451 130.4 66.5413C130.692 65.8374 131.12 65.198 131.659 64.6596C132.198 64.1211 132.838 63.6943 133.542 63.4034C134.246 63.1125 135.001 62.9633 135.763 62.9643H293.118C294.654 62.9663 296.126 63.578 297.212 64.665C298.298 65.7519 298.907 67.2253 298.907 68.7616C298.907 70.2978 298.298 71.7712 297.212 72.8582C296.126 73.9451 294.654 74.5568 293.118 74.5588V74.5588Z" fill="#548CA8"/>
<path d="M244.255 134.188H135.763C134.225 134.188 132.751 133.577 131.664 132.49C130.576 131.403 129.966 129.928 129.966 128.391C129.966 126.853 130.576 125.379 131.664 124.291C132.751 123.204 134.225 122.593 135.763 122.593H244.255C245.017 122.592 245.771 122.742 246.476 123.032C247.18 123.323 247.82 123.75 248.359 124.289C248.898 124.827 249.326 125.466 249.618 126.17C249.909 126.874 250.06 127.629 250.06 128.391C250.06 129.153 249.909 129.907 249.618 130.611C249.326 131.315 248.898 131.954 248.359 132.493C247.82 133.031 247.18 133.458 246.476 133.749C245.771 134.04 245.017 134.189 244.255 134.188V134.188Z" fill="#548CA8"/>
<path d="M184.626 193.817H135.763C135.001 193.818 134.246 193.669 133.542 193.378C132.838 193.087 132.198 192.66 131.659 192.122C131.12 191.583 130.692 190.944 130.4 190.24C130.108 189.536 129.958 188.782 129.958 188.02C129.958 187.258 130.108 186.503 130.4 185.799C130.692 185.096 131.12 184.456 131.659 183.918C132.198 183.379 132.838 182.952 133.542 182.662C134.246 182.371 135.001 182.221 135.763 182.222H184.626C186.162 182.224 187.635 182.836 188.72 183.923C189.806 185.01 190.415 186.483 190.415 188.02C190.415 189.556 189.806 191.029 188.72 192.116C187.635 193.203 186.162 193.815 184.626 193.817Z" fill="#548CA8"/>
<path d="M308.025 253.446H135.763C134.225 253.446 132.751 252.835 131.664 251.748C130.576 250.661 129.966 249.186 129.966 247.649C129.966 246.111 130.576 244.637 131.664 243.55C132.751 242.462 134.225 241.852 135.763 241.852H308.025C309.562 241.852 311.037 242.462 312.124 243.55C313.211 244.637 313.822 246.111 313.822 247.649C313.822 249.186 313.211 250.661 312.124 251.748C311.037 252.835 309.562 253.446 308.025 253.446Z" fill="#548CA8"/>
<path d="M269.928 313.075H135.763C135.001 313.076 134.246 312.927 133.542 312.636C132.838 312.345 132.198 311.918 131.659 311.38C131.12 310.841 130.692 310.202 130.4 309.498C130.108 308.794 129.958 308.04 129.958 307.278C129.958 306.516 130.108 305.762 130.4 305.058C130.692 304.354 131.12 303.714 131.659 303.176C132.198 302.638 132.838 302.211 133.542 301.92C134.246 301.629 135.001 301.48 135.763 301.481H269.928C270.69 301.48 271.445 301.629 272.149 301.92C272.854 302.211 273.494 302.638 274.033 303.176C274.572 303.714 275 304.354 275.291 305.058C275.583 305.762 275.733 306.516 275.733 307.278C275.733 308.04 275.583 308.794 275.291 309.498C275 310.202 274.572 310.841 274.033 311.38C273.494 311.918 272.854 312.345 272.149 312.636C271.445 312.927 270.69 313.076 269.928 313.075V313.075Z" fill="#548CA8"/>
<path d="M888 563.74H0V565.74H888V563.74Z" fill="#3F3D56"/>
<path d="M505.988 270.907C505.988 270.907 499.702 224.814 489.227 237.385C478.751 249.956 489.227 268.812 489.227 268.812L497.607 279.288L505.988 273.003V270.907Z" fill="#9F616A"/>
<path d="M531.13 285.574C531.13 285.574 510.178 262.527 505.988 266.717C501.798 270.907 489.227 273.003 491.322 281.383C493.417 289.764 537.415 317.001 537.415 317.001L531.13 285.574Z" fill="#548CA8"/>
<path opacity="0.1" d="M531.13 285.574C531.13 285.574 510.178 262.527 505.988 266.717C501.798 270.907 489.227 273.003 491.322 281.383C493.417 289.764 537.415 317.001 537.415 317.001L531.13 285.574Z" fill="black"/>
<path d="M650.554 283.478V300.24C650.554 300.24 652.649 337.952 640.078 335.857C627.507 333.762 633.793 302.335 633.793 302.335L635.888 283.478L650.554 283.478Z" fill="#9F616A"/>
<path d="M644.268 404.998C644.268 404.998 663.125 434.33 669.41 436.425C675.696 438.52 709.218 457.377 713.409 476.233L742.741 513.946L728.075 532.802C728.075 532.802 661.03 461.567 642.173 455.281C623.317 448.996 604.46 417.568 604.46 417.568L644.268 404.998Z" fill="#9F616A"/>
<path d="M495.512 356.809C495.512 356.809 455.704 363.094 461.989 388.236C468.275 413.378 529.035 465.757 529.035 465.757L531.13 478.328L554.177 482.518L564.652 472.043L562.557 465.757C562.557 465.757 537.415 442.71 535.32 434.33C533.225 425.949 510.178 392.427 499.702 390.332L514.368 381.951L495.512 356.809Z" fill="#9F616A"/>
<path d="M736.455 513.946C736.455 513.946 728.075 501.375 740.646 503.47C753.217 505.565 761.597 507.66 761.597 516.041C761.597 524.422 751.122 583.086 738.551 578.896C725.98 574.705 736.455 555.849 736.455 555.849C736.455 555.849 730.17 539.088 725.98 536.993C721.789 534.897 721.789 524.422 725.98 524.422C730.17 524.422 738.551 518.136 736.455 513.946Z" fill="#2F2E41"/>
<path d="M558.367 467.852C558.367 467.852 558.367 457.377 566.748 467.852C575.128 478.328 579.319 486.709 570.938 492.994C562.557 499.28 533.225 513.946 533.225 513.946C533.225 513.946 501.798 520.231 505.988 505.565C505.988 505.565 526.94 495.089 526.94 486.709C526.94 478.328 526.94 463.662 533.225 467.852C539.51 472.043 558.367 474.138 558.367 467.852Z" fill="#2F2E41"/>
<path d="M598.175 310.715C598.175 310.715 627.507 314.906 625.412 356.809C625.412 356.809 663.125 394.522 652.649 407.093C642.173 419.664 619.126 442.71 610.746 436.425C602.365 430.139 577.223 381.951 577.223 381.951C577.223 381.951 518.559 402.902 508.083 392.427C497.607 381.951 487.131 356.809 487.131 356.809L539.51 329.572L598.175 310.715Z" fill="#2F2E41"/>
<path d="M516.464 191.291C530.349 191.291 541.606 180.035 541.606 166.149C541.606 152.264 530.349 141.008 516.464 141.008C502.578 141.008 491.322 152.264 491.322 166.149C491.322 180.035 502.578 191.291 516.464 191.291Z" fill="#9F616A"/>
<path d="M535.32 168.245C535.32 168.245 549.986 191.291 554.176 193.387C558.367 195.482 524.844 216.433 524.844 216.433C524.844 216.433 524.844 189.196 514.368 182.911L535.32 168.245Z" fill="#9F616A"/>
<path d="M537.415 191.291C537.415 191.291 570.938 180.816 577.223 197.577C583.509 214.338 598.175 245.765 596.08 266.717C593.985 287.669 589.794 283.478 596.08 289.764C602.365 296.049 606.555 291.859 604.46 300.24C602.365 308.62 600.27 308.62 602.365 312.811C604.46 317.001 577.223 331.667 554.176 333.762L531.13 335.857C531.13 335.857 531.13 298.144 526.939 289.764C522.749 281.383 514.368 264.622 514.368 258.336V241.706C514.368 230.636 517.257 219.759 522.749 210.148V210.148C522.749 210.148 535.32 191.291 537.415 191.291Z" fill="#548CA8"/>
<path d="M562.557 199.672C562.557 199.672 640.078 205.957 648.459 226.909C656.839 247.861 661.03 289.764 652.649 289.764C644.268 289.764 633.792 293.954 631.697 289.764C629.602 285.574 621.222 243.67 619.126 243.67C617.031 243.67 554.176 237.385 554.176 237.385C554.176 237.385 526.939 203.862 562.557 199.672Z" fill="#548CA8"/>
<path d="M515.454 159.916C515.454 159.916 508.782 148.322 500.442 158.393C492.102 168.464 478.535 149.957 480.618 146.008C482.7 142.059 490.055 146.185 502.66 142.065C515.264 137.944 539.544 129.55 543.611 156.932C547.677 184.314 537.992 181.443 537.992 181.443C537.992 181.443 533.553 157.18 529.541 164.149L525.529 171.119L522.049 171.975L515.454 159.916Z" fill="#2F2E41"/>
</g>
<defs>
<clipPath id="clip0_101_2">
<rect width="892.35" height="579.11" fill="white"/>
</clipPath>
</defs>
</svg>
