<svg xmlns="http://www.w3.org/2000/svg" viewBox="0 0 48 48">
  
<g transform="matrix(3.4285714285714284,0,0,3.4285714285714284,0,0)"><g>
    <circle cx="7" cy="8" r="4.5" style="fill: none;stroke: #eeeeee;stroke-linecap: round;stroke-linejoin: round"></circle>
    <line x1="2.5" y1="8" x2="0.5" y2="8" style="fill: none;stroke: #eeeeee;stroke-linecap: round;stroke-linejoin: round"></line>
    <path d="M.5,11.5a3.46,3.46,0,0,0,2.63-1.2" style="fill: none;stroke: #eeeeee;stroke-linecap: round;stroke-linejoin: round"></path>
    <path d="M3.13,5.7A3.46,3.46,0,0,0,.5,4.5" style="fill: none;stroke: #eeeeee;stroke-linecap: round;stroke-linejoin: round"></path>
    <line x1="11.5" y1="8" x2="13.5" y2="8" style="fill: none;stroke: #eeeeee;stroke-linecap: round;stroke-linejoin: round"></line>
    <path d="M13.5,11.5a3.46,3.46,0,0,1-2.63-1.2" style="fill: none;stroke: #eeeeee;stroke-linecap: round;stroke-linejoin: round"></path>
    <path d="M10.87,5.7A3.46,3.46,0,0,1,13.5,4.5" style="fill: none;stroke: #eeeeee;stroke-linecap: round;stroke-linejoin: round"></path>
    <path d="M8.24,3.67A2.5,2.5,0,0,0,9.5,1.5" style="fill: none;stroke: #eeeeee;stroke-linecap: round;stroke-linejoin: round"></path>
    <path d="M4.5,1.5A2.5,2.5,0,0,0,5.76,3.67" style="fill: none;stroke: #eeeeee;stroke-linecap: round;stroke-linejoin: round"></path>
    <line x1="2.61" y1="7" x2="11.39" y2="7" style="fill: none;stroke: #eeeeee;stroke-linecap: round;stroke-linejoin: round"></line>
  </g></g></svg>